# AST/ASF file generated using VICON BodyLanguage
# -----------------------------------------------
:version 1.10
:name VICON
:units
  mass 1.0
  length 0.45
  angle deg
:documentation
   .ast/.asf automatically generated from VICON data using
   VICON BodyBuilder and BodyLanguage model FoxedUp or BRILLIANT.MOD
:root
   order TX TY TZ RX RY RZ
   axis XYZ
   position 0 0 0  
   orientation 0 0 0 
:bonedata
  begin
     id 1 
     name lhipjoint
     direction 0.589753 -0.68606 0.426044 
     length 2.54082 
     axis 0 0 0  XYZ
  end
  begin
     id 2 
     name lfemur
     direction 0.34202 -0.939693 0  
     length 7.04539  
     axis 0 0 20  XYZ
    dof rx ry rz
    limits (-160.0 20.0)
           (-70.0 70.0)
           (-60.0 70.0)
  end
  begin
     id 3 
     name ltibia
     direction 0.34202 -0.939693 0   
     length 7.83772   
     axis 0 0 20   XYZ
    dof rx
    limits (-10.0 170.0)
  end
  begin
     id 4 
     name lfoot
     direction 0.0596604 -0.163915 0.984669   
     length 2.39542   
     axis -90 7.62852e-016 20   XYZ
    dof rx rz
    limits (-45.0 90.0)
           (-70.0 20.0)
  end
  begin
     id 5 
     name ltoes
     direction 1.53514e-011 -4.21954e-011 1   
     length 1.2047   
     axis -90 7.62852e-016 20   XYZ
    dof rx
    limits (-90.0 20.0)
  end
  begin
     id 6 
     name rhipjoint
     direction -0.580585 -0.69168 0.429534   
     length 2.52018  
     axis 0 0 0  XYZ 
  end
  begin
     id 7 
     name rfemur
     direction -0.34202 -0.939693 0   
     length 7.0101   
     axis 0 0 -20   XYZ
    dof rx ry rz
    limits (-160.0 20.0)
           (-70.0 70.0)
           (-70.0 60.0)
  end
  begin
     id 8 
     name rtibia
     direction -0.34202 -0.939693 0   
     length 7.70628   
     axis 0 0 -20   XYZ
    dof rx
    limits (-10.0 170.0)
 end
 begin
     id 9 
     name rfoot
     direction -0.0696237 -0.19129 0.979061   
     length 2.52466  
     axis -90 -7.62852e-016 -20   XYZ
    dof rx rz
    limits (-45.0 90.0)
           (-20.0 70.0)
  end
  begin
     id 10 
     name rtoes
     direction -1.53519e-011 -4.21793e-011 1   
     length 1.266   
     axis -90 -7.62852e-016 -20   XYZ
    dof rx
    limits (-90.0 20.0)
  end
  begin
     id 11 
     name lowerback
     direction 0.00381965 0.995707 -0.0924856   
     length 2.20825   
     axis 0 0 0   XYZ
    dof rx ry rz
    limits (-20.0 45.0)
           (-30.0 30.0)
           (-30.0 30.0)
  end
  begin
     id 12 
     name upperback
     direction -0.0139043 0.999634 -0.0231929   
     length 2.21517   
     axis 0 0 0   XYZ
    dof rx ry rz
    limits (-20.0 45.0)
           (-30.0 30.0)
           (-30.0 30.0)
  end
  begin
     id 13 
     name thorax
     direction -0.0143933 0.999691 0.0202892   
     length 2.22911   
     axis 0 0 0   XYZ
    dof rx ry rz
    limits (-20.0 45.0)
           (-30.0 30.0)
           (-30.0 30.0)
  end
  begin
     id 14 
     name lowerneck
     direction -0.0251153 0.981819 0.188153   
     length 1.61782   
     axis 0 0 0   XYZ
    dof rx ry rz
    limits (-20.0 45.0)
           (-30.0 30.0)
           (-30.0 30.0)
  end
  begin
     id 15 
     name upperneck
     direction 0.0563891 0.969357 -0.239095   
     length 1.64526   
     axis 0 0 0   XYZ
    dof rx ry rz
    limits (-20.0 45.0)
           (-30.0 30.0)
           (-30.0 30.0)
  end
  begin
     id 16
     name head
     direction 0.0208328 0.99459 -0.101773  
     length 1.67436  
     axis 0 0 0   XYZ
    dof rx ry rz
    limits (-20.0 45.0)
           (-30.0 30.0)
           (-30.0 30.0)
  end
  begin
     id 17 
     name lclavicle
     direction 0.917689 0.397224 0.00772059  
     length 3.31102  
     axis 0 0 0   XYZ
    dof ry rz
    limits (-20.0 10.0)
           (0.0 20.0)
  end
  begin
     id 18 
     name lhumerus
     direction 1 -4.4896e-011 2.32308e-027   
     length 5.25537   
     axis 180 -30 -90   XYZ
    dof rx ry rz
    limits (-60.0 90.0)
           (-90.0 90.0)
           (-90.0 90.0)
  end
  begin
     id 19
     name lradius
     direction 1 -4.49005e-011 -2.04271e-027   
     length 3.38855   
     axis 180 -30 -90   XYZ
    dof rx
    limits (-10.0 170.0)
  end
  begin
     id 20
     name lwrist
     direction 1 -4.48892e-011 2.56952e-028   
     length 1.69428   
     axis -5.12785e-016 90 90   XYZ
    dof ry
    limits (-180.0 0.0)
 end
  begin
     id 21 
     name lhand
     direction 1 -4.48966e-011 5.13905e-028   
     length 0.614516   
     axis -3.27915e-016 90 90   XYZ
    dof rx rz
    limits (-90.0 90.0)
           (-45.0 45.0)
  end
  begin
     id 22 
     name lfingers
     direction 1 -4.48979e-011 1.02781e-027   
     length 0.495439   
     axis -6.5583e-016 90 90   XYZ
    dof rx
    limits (0.0 90.0)
  end
  begin
     id 23
     name lthumb
     direction 0.707107 -6.35001e-011 0.707107   
     length 0.711354   
     axis -90 45 2.85299e-015   XYZ
    dof rx rz
    limits (-45.0 45.0)
           (-45.0 45.0)
  end
  begin
     id 24 
     name rclavicle
     direction -0.938556 0.342765 -0.0403177   
     length 3.27019  
     axis 0 0 0   XYZ 
    dof ry rz
    limits (-10.0 20.0)
           (-20.0 0.0)
  end
  begin
     id 25 
     name rhumerus
     direction -1 -4.48966e-011 2.52291e-027  
     length 5.38183   
     axis 180 30 90   XYZ
    dof rx ry rz
    limits (-90.0 60.0)
           (-90.0 90.0)
           (-90.0 90.0)
  end
  begin
     id 26 
     name rradius
     direction -1 -4.4896e-011 1.5797e-027   
     length 3.16988   
     axis 180 30 90   XYZ
    dof rx
    limits (-10.0 170.0)
  end
  begin
     id 27 
     name rwrist
     direction -1 -4.48947e-011 2.56952e-028   
     length 1.58494   
     axis -5.12785e-016 -90 -90   XYZ
    dof ry
    limits (-180.0 0.0)
  end
  begin
     id 28
     name rhand
     direction -1 -4.49098e-011 5.13905e-028   
     length 0.637679   
     axis -3.27915e-016 -90 -90   XYZ
    dof rx rz
    limits (-90.0 90.0)
           (-45.0 45.0)
  end
  begin
     id 29
     name rfingers
     direction -1 -4.49026e-011 1.02781e-027   
     length 0.514113   
     axis -6.5583e-016 -90 -90   XYZ
    dof rx
    limits (0.0 90.0)
  end
  begin
     id 30
     name rthumb
     direction -0.707107 -6.3491e-011 0.707107   
     length 0.738167   
     axis -90 -45 -2.85299e-015   XYZ
    dof rx rz
    limits (-45.0 45.0)
           (-45.0 45.0)
  end
:hierarchy
  begin
    root lhipjoint rhipjoint lowerback
    lhipjoint lfemur
    lfemur ltibia
    ltibia lfoot
    lfoot ltoes
    rhipjoint rfemur
    rfemur rtibia
    rtibia rfoot
    rfoot rtoes
    lowerback upperback
    upperback thorax
    thorax lowerneck lclavicle rclavicle
    lowerneck upperneck
    upperneck head
    lclavicle lhumerus
    lhumerus lradius
    lradius lwrist
    lwrist lhand lthumb
    lhand lfingers
    rclavicle rhumerus
    rhumerus rradius
    rradius rwrist
    rwrist rhand rthumb
    rhand rfingers
  end

#!OML:ASF H:\Swim\Project 1\Capture day 1\Session 1\swimmer.ASF
:FULLY-SPECIFIED
:DEGREES
268
root 7.96857 15.434 29.8069 -177.795 -8.25635 178.426
lowerback 11.0236 -0.372759 0.903532
upperback 3.8633 -0.801332 -1.4104
thorax -2.18212 -0.542627 -1.86406
lowerneck -31.5772 4.21074 -0.296793
upperneck 20.1614 4.94679 3.43683
head 11.6249 2.67657 2.25869
rclavicle -3.97569e-015 1.19271e-015
rhumerus 37.9001 -14.4079 -60.1213
rradius 71.6354
rwrist 8.29419
rhand 43.1321 -6.73077
rfingers 7.12502
rthumb 64.9351 -14.0152
lclavicle -3.97569e-015 1.19271e-015
lhumerus 35.6049 8.31789 51.4644
lradius 76.3537
lwrist -6.93844
lhand 44.4496 11.7753
lfingers 7.12502
lthumb 65.9647 17.2596
rfemur -26.1084 -14.7503 5.72495
rtibia 53.5312
rfoot -19.5787 -17.137
rtoes -11.6341
lfemur -31.2892 3.8396 -11.3057
ltibia 55.0638
lfoot -20.1281 7.31004
ltoes -11.6717
269
root 7.96724 15.4365 29.8041 -177.773 -8.26204 178.416
lowerback 11.0111 -0.37741 0.901228
upperback 3.85615 -0.806767 -1.41122
thorax -2.18295 -0.544931 -1.86299
lowerneck -31.6262 4.02421 -0.472765
upperneck 20.1882 4.72392 3.59437
head 11.6407 2.58457 2.30757
rclavicle -3.58309e-014 1.19271e-015
rhumerus 37.9008 -14.4044 -60.1239
rradius 71.6288
rwrist 8.27032
rhand 43.0743 -6.77199
rfingers 7.12502
rthumb 64.8894 -14.132
lclavicle -3.58309e-014 1.19271e-015
lhumerus 35.5956 8.31847 51.4505
lradius 76.3509
lwrist -6.9662
lhand 44.4207 11.7864
lfingers 7.12502
lthumb 65.9424 17.3118
rfemur -26.0946 -14.734 5.71589
rtibia 53.4925
rfoot -19.5777 -17.1628
rtoes -11.6317
lfemur -31.2806 3.8403 -11.3227
ltibia 55.028
lfoot -20.1231 7.30436
ltoes -11.6581
270
root 7.96598 15.4391 29.8016 -177.75 -8.26608 178.403
lowerback 11.0007 -0.382037 0.895841
upperback 3.848 -0.812512 -1.41317
thorax -2.18593 -0.54741 -1.86129
lowerneck -31.6723 3.81855 -0.667951
upperneck 20.2047 4.47875 3.76889
head 11.6526 2.4835 2.36155
rclavicle 5.51627e-015 6.36111e-015
rhumerus 37.9045 -14.4002 -60.1321
rradius 71.6226
rwrist 8.25144
rhand 43.0416 -6.79745
rfingers 7.12502
rthumb 64.8635 -14.2
lclavicle 5.51627e-015 6.36111e-015
lhumerus 35.5838 8.31829 51.4313
lradius 76.3478
lwrist -6.99238
lhand 44.3975 11.8063
lfingers 7.12502
lthumb 65.9245 17.3647
rfemur -26.0831 -14.7143 5.7051
rtibia 53.4525
rfoot -19.5791 -17.1878
rtoes -11.6135
lfemur -31.2729 3.84223 -11.3424
ltibia 54.9893
lfoot -20.1143 7.29892
ltoes -11.6534
271
root 7.96478 15.4418 29.7991 -177.728 -8.26898 178.391
lowerback 10.9912 -0.387115 0.890193
upperback 3.84217 -0.819191 -1.41583
thorax -2.18706 -0.550451 -1.86006
lowerneck -31.7159 3.59531 -0.86982
upperneck 20.2058 4.21201 3.94577
head 11.6598 2.37263 2.41315
rclavicle 1.44119e-014 -2.0276e-014
rhumerus 37.9154 -14.3964 -60.146
rradius 71.6179
rwrist 8.23545
rhand 43.0046 -6.82992
rfingers 7.12502
rthumb 64.8342 -14.2805
lclavicle 1.44119e-014 -2.0276e-014
lhumerus 35.5741 8.32226 51.4093
lradius 76.3434
lwrist -7.01385
lhand 44.3803 11.8234
lfingers 7.12502
lthumb 65.9112 17.4063
rfemur -26.0713 -14.692 5.69494
rtibia 53.4106
rfoot -19.5809 -17.2128
rtoes -11.5875
lfemur -31.2639 3.84572 -11.3623
ltibia 54.9473
lfoot -20.1042 7.29388
ltoes -11.6493
272
root 7.96369 15.4447 29.7969 -177.708 -8.27 178.383
lowerback 10.986 -0.392281 0.889059
upperback 3.83573 -0.82556 -1.41922
thorax -2.19121 -0.553358 -1.86214
lowerneck -31.7484 3.35611 -1.0783
upperneck 20.1891 3.92508 4.12813
head 11.6597 2.25299 2.46349
rclavicle 1.04859e-014 9.54166e-015
rhumerus 37.9257 -14.3922 -60.1633
rradius 71.6147
rwrist 8.22168
rhand 42.9886 -6.84769
rfingers 7.12502
rthumb 64.8215 -14.319
lclavicle 1.04859e-014 9.54166e-015
lhumerus 35.5626 8.32598 51.3817
lradius 76.3383
lwrist -7.02255
lhand 44.366 11.8431
lfingers 7.12502
lthumb 65.9001 17.4464
rfemur -26.0585 -14.6649 5.69017
rtibia 53.3662
rfoot -19.5823 -17.2387
rtoes -11.5603
lfemur -31.2523 3.85034 -11.3768
ltibia 54.9023
lfoot -20.0928 7.28871
ltoes -11.648
273
root 7.96262 15.4478 29.7948 -177.69 -8.27041 178.377
lowerback 10.9826 -0.397259 0.890686
upperback 3.83142 -0.831675 -1.42338
thorax -2.19413 -0.556224 -1.86661
lowerneck -31.7762 3.10362 -1.29102
upperneck 20.1563 3.62143 4.31301
head 11.6546 2.12588 2.51194
rclavicle -9.64106e-015 -8.54774e-015
rhumerus 37.939 -14.39 -60.1837
rradius 71.6129
rwrist 8.21157
rhand 42.9862 -6.8533
rfingers 7.12502
rthumb 64.8196 -14.3277
lclavicle -9.64106e-015 -8.54774e-015
lhumerus 35.5546 8.33198 51.353
lradius 76.3342
lwrist -7.01784
lhand 44.3563 11.8622
lfingers 7.12502
lthumb 65.8926 17.4793
rfemur -26.0427 -14.6367 5.68731
rtibia 53.3187
rfoot -19.584 -17.2616
rtoes -11.5268
lfemur -31.2373 3.85398 -11.3891
ltibia 54.8539
lfoot -20.0827 7.28395
ltoes -11.6417
274
root 7.9616 15.451 29.7929 -177.673 -8.26988 178.373
lowerback 10.982 -0.402561 0.895296
upperback 3.82747 -0.838022 -1.42807
thorax -2.1983 -0.559245 -1.87326
lowerneck -31.7931 2.84308 -1.50264
upperneck 20.104 3.30753 4.49507
head 11.6418 1.99382 2.55656
rclavicle -3.16068e-014 -6.75868e-015
rhumerus 37.9535 -14.3877 -60.2082
rradius 71.6149
rwrist 8.2016
rhand 42.9866 -6.8576
rfingers 7.12502
rthumb 64.8198 -14.3316
lclavicle -3.16068e-014 -6.75868e-015
lhumerus 35.546 8.34041 51.3231
lradius 76.3319
lwrist -7.0012
lhand 44.3482 11.8786
lfingers 7.12502
lthumb 65.8864 17.5072
rfemur -26.0251 -14.6075 5.68732
rtibia 53.2678
rfoot -19.583 -17.2843
rtoes -11.4985
lfemur -31.2197 3.85632 -11.3978
ltibia 54.8027
lfoot -20.0716 7.27833
ltoes -11.6326
275
root 7.96062 15.4543 29.7911 -177.656 -8.26957 178.371
lowerback 10.9812 -0.408877 0.900024
upperback 3.82421 -0.845704 -1.43146
thorax -2.20163 -0.562943 -1.87845
lowerneck -31.803 2.57802 -1.71341
upperneck 20.0354 2.98838 4.6742
head 11.6233 1.85898 2.59847
rclavicle -1.78906e-014 4.37326e-015
rhumerus 37.9725 -14.3833 -60.2362
rradius 71.6206
rwrist 8.19235
rhand 42.9906 -6.85863
rfingers 7.12502
rthumb 64.823 -14.3274
lclavicle -1.78906e-014 4.37326e-015
lhumerus 35.5344 8.35464 51.2951
lradius 76.3324
lwrist -6.9745
lhand 44.3408 11.8876
lfingers 7.12502
lthumb 65.8806 17.5266
rfemur -26.0065 -14.5798 5.68935
rtibia 53.2136
rfoot -19.579 -17.3053
rtoes -11.4725
lfemur -31.2016 3.85664 -11.4046
ltibia 54.7496
lfoot -20.0622 7.27196
ltoes -11.6103
276
root 7.95974 15.4578 29.7894 -177.637 -8.27016 178.371
lowerback 10.9797 -0.416068 0.903322
upperback 3.82086 -0.854607 -1.43339
thorax -2.20475 -0.567239 -1.88118
lowerneck -31.8051 2.31293 -1.9219
upperneck 19.9512 2.6697 4.84987
head 11.599 1.72391 2.63828
rclavicle 4.87022e-015 -2.20651e-014
rhumerus 37.9944 -14.3772 -60.2673
rradius 71.6326
rwrist 8.18132
rhand 42.9946 -6.8626
rfingers 7.12502
rthumb 64.8262 -14.3261
lclavicle 4.87022e-015 -2.20651e-014
lhumerus 35.5217 8.37423 51.2727
lradius 76.3357
lwrist -6.94267
lhand 44.3329 11.8943
lfingers 7.12502
lthumb 65.8746 17.5444
rfemur -25.9888 -14.5542 5.69305
rtibia 53.1564
rfoot -19.5724 -17.3248
rtoes -11.4391
lfemur -31.1852 3.85382 -11.4101
ltibia 54.6953
lfoot -20.0494 7.26755
ltoes -11.5928
277
root 7.95893 15.4614 29.7878 -177.616 -8.27291 178.371
lowerback 10.9769 -0.425551 0.905371
upperback 3.81728 -0.866519 -1.4331
thorax -2.2074 -0.573001 -1.88052
lowerneck -31.801 2.05121 -2.12997
upperneck 19.8521 2.35676 5.02319
head 11.5691 1.59097 2.67773
rclavicle 3.16068e-014 7.95139e-016
rhumerus 38.0223 -14.3664 -60.3023
rradius 71.6491
rwrist 8.1686
rhand 42.9966 -6.86884
rfingers 7.12502
rthumb 64.8278 -14.3299
lclavicle 3.16068e-014 7.95139e-016
lhumerus 35.5046 8.40095 51.2556
lradius 76.3415
lwrist -6.91036
lhand 44.3199 11.8907
lfingers 7.12502
lthumb 65.8645 17.5593
rfemur -25.9714 -14.5338 5.69878
rtibia 53.0964
rfoot -19.5619 -17.3444
rtoes -11.4175
lfemur -31.1716 3.84839 -11.4146
ltibia 54.6408
lfoot -20.04 7.25666
ltoes -11.5415
278
root 7.95824 15.4652 29.7862 -177.59 -8.2781 178.37
lowerback 10.97 -0.437079 0.90416
upperback 3.81188 -0.881146 -1.43116
thorax -2.20984 -0.580008 -1.87599
lowerneck -31.7899 1.80409 -2.32623
upperneck 19.7474 2.06081 5.18955
head 11.5366 1.46541 2.71553
rclavicle 3.03147e-015 -2.5842e-015
rhumerus 38.0495 -14.3496 -60.3367
rradius 71.6713
rwrist 8.16073
rhand 42.9824 -6.86108
rfingers 7.12502
rthumb 64.8166 -14.3404
lclavicle 3.03147e-015 -2.5842e-015
lhumerus 35.4818 8.43143 51.2415
lradius 76.3485
lwrist -6.88346
lhand 44.2949 11.882
lfingers 7.12502
lthumb 65.8452 17.5858
rfemur -25.9575 -14.5182 5.70577
rtibia 53.0347
rfoot -19.5471 -17.3668
rtoes -11.4107
lfemur -31.1639 3.84019 -11.42
ltibia 54.5868
lfoot -20.0267 7.25023
ltoes -11.5047
